ffmpeg version git-2020-05-15-b18fd2b Copyright (c) 2000-2020 the FFmpeg developers
  built with gcc 9.3.1 (GCC) 20200513
  configuration: --enable-gpl --enable-version3 --enable-sdl2 --enable-fontconfig --enable-gnutls --enable-iconv --enable-libass --enable-libdav1d --enable-libbluray --enable-libfreetype --enable-libmp3lame --enable-libopencore-amrnb --enable-libopencore-amrwb --enable-libopenjpeg --enable-libopus --enable-libshine --enable-libsnappy --enable-libsoxr --enable-libsrt --enable-libtheora --enable-libtwolame --enable-libvpx --enable-libwavpack --enable-libwebp --enable-libx264 --enable-libx265 --enable-libxml2 --enable-libzimg --enable-lzma --enable-zlib --enable-gmp --enable-libvidstab --enable-libvmaf --enable-libvorbis --enable-libvo-amrwbenc --enable-libmysofa --enable-libspeex --enable-libxvid --enable-libaom --disable-w32threads --enable-libmfx --enable-ffnvcodec --enable-cuda-llvm --enable-cuvid --enable-d3d11va --enable-nvenc --enable-nvdec --enable-dxva2 --enable-avisynth --enable-libopenmpt --enable-amf
  libavutil      56. 45.100 / 56. 45.100
  libavcodec     58. 84.100 / 58. 84.100
  libavformat    58. 43.100 / 58. 43.100
  libavdevice    58.  9.103 / 58.  9.103
  libavfilter     7. 81.100 /  7. 81.100
  libswscale      5.  6.101 /  5.  6.101
  libswresample   3.  6.100 /  3.  6.100
  libpostproc    55.  6.100 / 55.  6.100
Input #0, mov,mp4,m4a,3gp,3g2,mj2, from 'C:\Users\Ahmed\Documents\GP\views/VidUploads/VideoUp-1592746040226.mp4':
  Metadata:
    major_brand     : isom
    minor_version   : 512
    compatible_brands: isomiso2avc1mp41
    encoder         : Lavf58.43.100
  Duration: 00:00:10.03, start: 0.000000, bitrate: 604 kb/s
    Stream #0:0(und): Video: h264 (Main) (avc1 / 0x31637661), yuv420p(tv, bt709), 1280x720 [SAR 1:1 DAR 16:9], 467 kb/s, 30 fps, 30 tbr, 15360 tbn, 60 tbc (default)
    Metadata:
      handler_name    : ISO Media file produced by Google Inc. Created on: 01/29/2020.
    Stream #0:1(eng): Audio: aac (LC) (mp4a / 0x6134706D), 44100 Hz, stereo, fltp, 128 kb/s (default)
    Metadata:
      handler_name    : ISO Media file produced by Google Inc. Created on: 01/29/2020.
Stream mapping:
  Stream #0:0 -> #0:0 (h264 (native) -> mjpeg (native))
Press [q] to stop, [?] for help
[swscaler @ 000001f3773c2cc0] deprecated pixel format used, make sure you did set range correctly
Output #0, rawvideo, to 'pipe:1':
  Metadata:
    major_brand     : isom
    minor_version   : 512
    compatible_brands: isomiso2avc1mp41
    encoder         : Lavf58.43.100
    Stream #0:0(und): Video: mjpeg, yuvj420p(pc), 1280x720 [SAR 1:1 DAR 16:9], q=2-31, 200 kb/s, 30 fps, 30 tbn, 30 tbc (default)
    Metadata:
      handler_name    : ISO Media file produced by Google Inc. Created on: 01/29/2020.
      encoder         : Lavc58.84.100 mjpeg
    Side data:
      cpb: bitrate max/min/avg: 0/0/200000 buffer size: 0 vbv_delay: N/A
frame=   96 fps=0.0 q=24.8 size=    2132kB time=00:00:03.20 bitrate=5459.0kbits/s speed=6.37x    frame=  199 fps=198 q=24.8 size=    3911kB time=00:00:06.63 bitrate=4829.5kbits/s speed=6.61x    frame=  301 fps=201 q=24.8 Lsize=    5737kB time=00:00:10.03 bitrate=4684.4kbits/s speed=6.71x    
video:5737kB audio:0kB subtitle:0kB other streams:0kB global headers:0kB muxing overhead: 0.000000%
